<svg xmlns="http://www.w3.org/2000/svg" width="900" height="900" viewBox="0 0 900 900" fill="none" stroke="#000"
     stroke-width="1">
    <path d="M0.0 90.0L7.5 97.2L15.0 104.2L22.5 110.9L30.0 117.0L37.5 122.5L45.0 127.2L52.5 131.0L60.0 133.7L67.5 135.4L75.0 136.0L82.5 135.4L90.0 133.7L97.5 131.0L105.0 127.2L112.5 122.5L120.0 117.0L127.5 110.9L135.0 104.2L142.5 97.2L150.0 90.0L157.5 82.8L165.0 75.8L172.5 69.1L180.0 63.0L187.5 57.5L195.0 52.8L202.5 49.0L210.0 46.3L217.5 44.6L225.0 44.0L232.5 44.6L240.0 46.3L247.5 49.0L255.0 52.8L262.5 57.5L270.0 63.0L277.5 69.1L285.0 75.8L292.5 82.8L300.0 90.0L307.5 97.2L315.0 104.2L322.5 110.9L330.0 117.0L337.5 122.5L345.0 127.2L352.5 131.0L360.0 133.7L367.5 135.4L375.0 136.0L382.5 135.4L390.0 133.7L397.5 131.0L405.0 127.2L412.5 122.5L420.0 117.0L427.5 110.9L435.0 104.2L442.5 97.2L450.0 90.0L457.5 82.8L465.0 75.8L472.5 69.1L480.0 63.0L487.5 57.5L495.0 52.8L502.5 49.0L510.0 46.3L517.5 44.6L525.0 44.0L532.5 44.6L540.0 46.3L547.5 49.0L555.0 52.8L562.5 57.5L570.0 63.0L577.5 69.1L585.0 75.8L592.5 82.8L600.0 90.0L607.5 97.2L615.0 104.2L622.5 110.9L630.0 117.0L637.5 122.5L645.0 127.2L652.5 131.0L660.0 133.7L667.5 135.4L675.0 136.0L682.5 135.4L690.0 133.7L697.5 131.0L705.0 127.2L712.5 122.5L720.0 117.0L727.5 110.9L735.0 104.2L742.5 97.2L750.0 90.0L757.5 82.8L765.0 75.8L772.5 69.1L780.0 63.0L787.5 57.5L795.0 52.8L802.5 49.0L810.0 46.3L817.5 44.6L825.0 44.0L832.5 44.6L840.0 46.3L847.5 49.0L855.0 52.8L862.5 57.5L870.0 63.0L877.5 69.1L885.0 75.8L892.5 82.8L900.0 90.0"/>
    <path d="M0.0 123.4L7.5 130.7L15.0 137.3L22.5 142.9L30.0 147.5L37.5 150.9L45.0 153.1L52.5 153.9L60.0 153.4L67.5 151.7L75.0 148.6L82.5 144.3L90.0 139.0L97.5 132.7L105.0 125.6L112.5 117.8L120.0 109.6L127.5 101.2L135.0 92.8L142.5 84.5L150.0 76.6L157.5 69.3L165.0 62.7L172.5 57.1L180.0 52.5L187.5 49.1L195.0 46.9L202.5 46.1L210.0 46.6L217.5 48.3L225.0 51.4L232.5 55.7L240.0 61.0L247.5 67.3L255.0 74.4L262.5 82.2L270.0 90.4L277.5 98.8L285.0 107.2L292.5 115.5L300.0 123.4L307.5 130.7L315.0 137.3L322.5 142.9L330.0 147.5L337.5 150.9L345.0 153.1L352.5 153.9L360.0 153.4L367.5 151.7L375.0 148.6L382.5 144.3L390.0 139.0L397.5 132.7L405.0 125.6L412.5 117.8L420.0 109.6L427.5 101.2L435.0 92.8L442.5 84.5L450.0 76.6L457.5 69.3L465.0 62.7L472.5 57.1L480.0 52.5L487.5 49.1L495.0 46.9L502.5 46.1L510.0 46.6L517.5 48.3L525.0 51.4L532.5 55.7L540.0 61.0L547.5 67.3L555.0 74.4L562.5 82.2L570.0 90.4L577.5 98.8L585.0 107.2L592.5 115.5L600.0 123.4L607.5 130.7L615.0 137.3L622.5 142.9L630.0 147.5L637.5 150.9L645.0 153.1L652.5 153.9L660.0 153.4L667.5 151.7L675.0 148.6L682.5 144.3L690.0 139.0L697.5 132.7L705.0 125.6L712.5 117.8L720.0 109.6L727.5 101.2L735.0 92.8L742.5 84.5L750.0 76.6L757.5 69.3L765.0 62.7L772.5 57.1L780.0 52.5L787.5 49.1L795.0 46.9L802.5 46.1L810.0 46.6L817.5 48.3L825.0 51.4L832.5 55.7L840.0 61.0L847.5 67.3L855.0 74.4L862.5 82.2L870.0 90.4L877.5 98.8L885.0 107.2L892.5 115.5L900.0 123.4"/>
    <path d="M0.0 144.4L7.5 148.2L15.0 151.2L22.5 153.1L30.0 153.9L37.5 153.7L45.0 152.4L52.5 150.0L60.0 146.7L67.5 142.4L75.0 137.4L82.5 131.7L90.0 125.4L97.5 118.8L105.0 112.0L112.5 105.1L120.0 98.3L127.5 91.8L135.0 85.8L142.5 80.3L150.0 75.6L157.5 71.8L165.0 68.8L172.5 66.9L180.0 66.1L187.5 66.3L195.0 67.6L202.5 70.0L210.0 73.3L217.5 77.6L225.0 82.6L232.5 88.3L240.0 94.6L247.5 101.2L255.0 108.0L262.5 114.9L270.0 121.7L277.5 128.2L285.0 134.2L292.5 139.7L300.0 144.4L307.5 148.2L315.0 151.2L322.5 153.1L330.0 153.9L337.5 153.7L345.0 152.4L352.5 150.0L360.0 146.7L367.5 142.4L375.0 137.4L382.5 131.7L390.0 125.4L397.5 118.8L405.0 112.0L412.5 105.1L420.0 98.3L427.5 91.8L435.0 85.8L442.5 80.3L450.0 75.6L457.5 71.8L465.0 68.8L472.5 66.9L480.0 66.1L487.5 66.3L495.0 67.6L502.5 70.0L510.0 73.3L517.5 77.6L525.0 82.6L532.5 88.3L540.0 94.6L547.5 101.2L555.0 108.0L562.5 114.9L570.0 121.7L577.5 128.2L585.0 134.2L592.5 139.7L600.0 144.4L607.5 148.2L615.0 151.2L622.5 153.1L630.0 153.9L637.5 153.7L645.0 152.4L652.5 150.0L660.0 146.7L667.5 142.4L675.0 137.4L682.5 131.7L690.0 125.4L697.5 118.8L705.0 112.0L712.5 105.1L720.0 98.3L727.5 91.8L735.0 85.8L742.5 80.3L750.0 75.6L757.5 71.8L765.0 68.8L772.5 66.9L780.0 66.1L787.5 66.3L795.0 67.6L802.5 70.0L810.0 73.3L817.5 77.6L825.0 82.6L832.5 88.3L840.0 94.6L847.5 101.2L855.0 108.0L862.5 114.9L870.0 121.7L877.5 128.2L885.0 134.2L892.5 139.7L900.0 144.4"/>
    <path d="M0.0 157.6L7.5 158.5L15.0 158.4L22.5 157.4L30.0 155.5L37.5 152.7L45.0 149.1L52.5 144.7L60.0 139.8L67.5 134.4L75.0 128.6L82.5 122.6L90.0 116.5L97.5 110.6L105.0 104.8L112.5 99.5L120.0 94.6L127.5 90.4L135.0 86.9L142.5 84.2L150.0 82.4L157.5 81.5L165.0 81.6L172.5 82.6L180.0 84.5L187.5 87.3L195.0 90.9L202.5 95.3L210.0 100.2L217.5 105.6L225.0 111.4L232.5 117.4L240.0 123.5L247.5 129.4L255.0 135.2L262.5 140.5L270.0 145.4L277.5 149.6L285.0 153.1L292.5 155.8L300.0 157.6L307.5 158.5L315.0 158.4L322.5 157.4L330.0 155.5L337.5 152.7L345.0 149.1L352.5 144.7L360.0 139.8L367.5 134.4L375.0 128.6L382.5 122.6L390.0 116.5L397.5 110.6L405.0 104.8L412.5 99.5L420.0 94.6L427.5 90.4L435.0 86.9L442.5 84.2L450.0 82.4L457.5 81.5L465.0 81.6L472.5 82.6L480.0 84.5L487.5 87.3L495.0 90.9L502.5 95.3L510.0 100.2L517.5 105.6L525.0 111.4L532.5 117.4L540.0 123.5L547.5 129.4L555.0 135.2L562.5 140.5L570.0 145.4L577.5 149.6L585.0 153.1L592.5 155.8L600.0 157.6L607.5 158.5L615.0 158.4L622.5 157.4L630.0 155.5L637.5 152.7L645.0 149.1L652.5 144.7L660.0 139.8L667.5 134.4L675.0 128.6L682.5 122.6L690.0 116.5L697.5 110.6L705.0 104.8L712.5 99.5L720.0 94.6L727.5 90.4L735.0 86.9L742.5 84.2L750.0 82.4L757.5 81.5L765.0 81.6L772.5 82.6L780.0 84.5L787.5 87.3L795.0 90.9L802.5 95.3L810.0 100.2L817.5 105.6L825.0 111.4L832.5 117.4L840.0 123.5L847.5 129.4L855.0 135.2L862.5 140.5L870.0 145.4L877.5 149.6L885.0 153.1L892.5 155.8L900.0 157.6"/>
    <path d="M0.0 178.7L7.5 176.4L15.0 172.9L22.5 168.3L30.0 162.9L37.5 156.6L45.0 149.6L52.5 142.2L60.0 134.5L67.5 126.6L75.0 118.9L82.5 111.4L90.0 104.4L97.5 98.0L105.0 92.4L112.5 87.7L120.0 84.1L127.5 81.6L135.0 80.2L142.5 80.2L150.0 81.3L157.5 83.6L165.0 87.1L172.5 91.7L180.0 97.1L187.5 103.4L195.0 110.4L202.5 117.8L210.0 125.5L217.5 133.4L225.0 141.1L232.5 148.6L240.0 155.6L247.5 162.0L255.0 167.6L262.5 172.3L270.0 175.9L277.5 178.4L285.0 179.8L292.5 179.8L300.0 178.7L307.5 176.4L315.0 172.9L322.5 168.3L330.0 162.9L337.5 156.6L345.0 149.6L352.5 142.2L360.0 134.5L367.5 126.6L375.0 118.9L382.5 111.4L390.0 104.4L397.5 98.0L405.0 92.4L412.5 87.7L420.0 84.1L427.5 81.6L435.0 80.2L442.5 80.2L450.0 81.3L457.5 83.6L465.0 87.1L472.5 91.7L480.0 97.1L487.5 103.4L495.0 110.4L502.5 117.8L510.0 125.5L517.5 133.4L525.0 141.1L532.5 148.6L540.0 155.6L547.5 162.0L555.0 167.6L562.5 172.3L570.0 175.9L577.5 178.4L585.0 179.8L592.5 179.8L600.0 178.7L607.5 176.4L615.0 172.9L622.5 168.3L630.0 162.9L637.5 156.6L645.0 149.6L652.5 142.2L660.0 134.5L667.5 126.6L675.0 118.9L682.5 111.4L690.0 104.4L697.5 98.0L705.0 92.4L712.5 87.7L720.0 84.1L727.5 81.6L735.0 80.2L742.5 80.2L750.0 81.3L757.5 83.6L765.0 87.1L772.5 91.7L780.0 97.1L787.5 103.4L795.0 110.4L802.5 117.8L810.0 125.5L817.5 133.4L825.0 141.1L832.5 148.6L840.0 155.6L847.5 162.0L855.0 167.6L862.5 172.3L870.0 175.9L877.5 178.4L885.0 179.8L892.5 179.8L900.0 178.7"/>
    <path d="M0.0 181.0L7.5 175.3L15.0 168.9L22.5 161.7L30.0 153.9L37.5 145.9L45.0 137.6L52.5 129.5L60.0 121.6L67.5 114.1L75.0 107.3L82.5 101.3L90.0 96.3L97.5 92.3L105.0 89.5L112.5 87.9L120.0 87.7L127.5 88.7L135.0 91.0L142.5 94.4L150.0 99.0L157.5 104.7L165.0 111.1L172.5 118.3L180.0 126.1L187.5 134.1L195.0 142.4L202.5 150.5L210.0 158.4L217.5 165.9L225.0 172.7L232.5 178.7L240.0 183.7L247.5 187.7L255.0 190.5L262.5 192.1L270.0 192.3L277.5 191.3L285.0 189.0L292.5 185.6L300.0 181.0L307.5 175.3L315.0 168.9L322.5 161.7L330.0 153.9L337.5 145.9L345.0 137.6L352.5 129.5L360.0 121.6L367.5 114.1L375.0 107.3L382.5 101.3L390.0 96.3L397.5 92.3L405.0 89.5L412.5 87.9L420.0 87.7L427.5 88.7L435.0 91.0L442.5 94.4L450.0 99.0L457.5 104.7L465.0 111.1L472.5 118.3L480.0 126.1L487.5 134.1L495.0 142.4L502.5 150.5L510.0 158.4L517.5 165.9L525.0 172.7L532.5 178.7L540.0 183.7L547.5 187.7L555.0 190.5L562.5 192.1L570.0 192.3L577.5 191.3L585.0 189.0L592.5 185.6L600.0 181.0L607.5 175.3L615.0 168.9L622.5 161.7L630.0 153.9L637.5 145.9L645.0 137.6L652.5 129.5L660.0 121.6L667.5 114.1L675.0 107.3L682.5 101.3L690.0 96.3L697.5 92.3L705.0 89.5L712.5 87.9L720.0 87.7L727.5 88.7L735.0 91.0L742.5 94.4L750.0 99.0L757.5 104.7L765.0 111.1L772.5 118.3L780.0 126.1L787.5 134.1L795.0 142.4L802.5 150.5L810.0 158.4L817.5 165.9L825.0 172.7L832.5 178.7L840.0 183.7L847.5 187.7L855.0 190.5L862.5 192.1L870.0 192.3L877.5 191.3L885.0 189.0L892.5 185.6L900.0 181.0"/>
    <path d="M0.0 167.5L7.5 161.6L15.0 155.4L22.5 149.1L30.0 142.8L37.5 136.7L45.0 130.9L52.5 125.5L60.0 120.8L67.5 116.8L75.0 113.6L82.5 111.3L90.0 110.0L97.5 109.6L105.0 110.2L112.5 111.9L120.0 114.4L127.5 117.9L135.0 122.1L142.5 127.0L150.0 132.5L157.5 138.4L165.0 144.6L172.5 150.9L180.0 157.2L187.5 163.3L195.0 169.1L202.5 174.5L210.0 179.2L217.5 183.2L225.0 186.4L232.5 188.7L240.0 190.0L247.5 190.4L255.0 189.8L262.5 188.1L270.0 185.6L277.5 182.1L285.0 177.9L292.5 173.0L300.0 167.5L307.5 161.6L315.0 155.4L322.5 149.1L330.0 142.8L337.5 136.7L345.0 130.9L352.5 125.5L360.0 120.8L367.5 116.8L375.0 113.6L382.5 111.3L390.0 110.0L397.5 109.6L405.0 110.2L412.5 111.9L420.0 114.4L427.5 117.9L435.0 122.1L442.5 127.0L450.0 132.5L457.5 138.4L465.0 144.6L472.5 150.9L480.0 157.2L487.5 163.3L495.0 169.1L502.5 174.5L510.0 179.2L517.5 183.2L525.0 186.4L532.5 188.7L540.0 190.0L547.5 190.4L555.0 189.8L562.5 188.1L570.0 185.6L577.5 182.1L585.0 177.9L592.5 173.0L600.0 167.5L607.5 161.6L615.0 155.4L622.5 149.1L630.0 142.8L637.5 136.7L645.0 130.9L652.5 125.5L660.0 120.8L667.5 116.8L675.0 113.6L682.5 111.3L690.0 110.0L697.5 109.6L705.0 110.2L712.5 111.9L720.0 114.4L727.5 117.9L735.0 122.1L742.5 127.0L750.0 132.5L757.5 138.4L765.0 144.6L772.5 150.9L780.0 157.2L787.5 163.3L795.0 169.1L802.5 174.5L810.0 179.2L817.5 183.2L825.0 186.4L832.5 188.7L840.0 190.0L847.5 190.4L855.0 189.8L862.5 188.1L870.0 185.6L877.5 182.1L885.0 177.9L892.5 173.0L900.0 167.5"/>
    <path d="M0.0 160.0L7.5 153.6L15.0 147.3L22.5 141.4L30.0 135.9L37.5 131.0L45.0 126.8L52.5 123.4L60.0 121.0L67.5 119.5L75.0 118.9L82.5 119.5L90.0 121.0L97.5 123.4L105.0 126.8L112.5 131.0L120.0 135.9L127.5 141.4L135.0 147.3L142.5 153.6L150.0 160.0L157.5 166.4L165.0 172.7L172.5 178.6L180.0 184.1L187.5 189.0L195.0 193.2L202.5 196.6L210.0 199.0L217.5 200.5L225.0 201.1L232.5 200.5L240.0 199.0L247.5 196.6L255.0 193.2L262.5 189.0L270.0 184.1L277.5 178.6L285.0 172.7L292.5 166.4L300.0 160.0L307.5 153.6L315.0 147.3L322.5 141.4L330.0 135.9L337.5 131.0L345.0 126.8L352.5 123.4L360.0 121.0L367.5 119.5L375.0 118.9L382.5 119.5L390.0 121.0L397.5 123.4L405.0 126.8L412.5 131.0L420.0 135.9L427.5 141.4L435.0 147.3L442.5 153.6L450.0 160.0L457.5 166.4L465.0 172.7L472.5 178.6L480.0 184.1L487.5 189.0L495.0 193.2L502.5 196.6L510.0 199.0L517.5 200.5L525.0 201.1L532.5 200.5L540.0 199.0L547.5 196.6L555.0 193.2L562.5 189.0L570.0 184.1L577.5 178.6L585.0 172.7L592.5 166.4L600.0 160.0L607.5 153.6L615.0 147.3L622.5 141.4L630.0 135.9L637.5 131.0L645.0 126.8L652.5 123.4L660.0 121.0L667.5 119.5L675.0 118.9L682.5 119.5L690.0 121.0L697.5 123.4L705.0 126.8L712.5 131.0L720.0 135.9L727.5 141.4L735.0 147.3L742.5 153.6L750.0 160.0L757.5 166.4L765.0 172.7L772.5 178.6L780.0 184.1L787.5 189.0L795.0 193.2L802.5 196.6L810.0 199.0L817.5 200.5L825.0 201.1L832.5 200.5L840.0 199.0L847.5 196.6L855.0 193.2L862.5 189.0L870.0 184.1L877.5 178.6L885.0 172.7L892.5 166.4L900.0 160.0"/>
    <path d="M0.0 147.1L7.5 139.9L15.0 133.5L22.5 127.9L30.0 123.4L37.5 120.1L45.0 118.0L52.5 117.1L60.0 117.6L67.5 119.4L75.0 122.4L82.5 126.5L90.0 131.8L97.5 138.0L105.0 144.9L112.5 152.5L120.0 160.6L127.5 168.8L135.0 177.1L142.5 185.2L150.0 192.9L157.5 200.1L165.0 206.5L172.5 212.1L180.0 216.6L187.5 219.9L195.0 222.0L202.5 222.9L210.0 222.4L217.5 220.6L225.0 217.6L232.5 213.5L240.0 208.2L247.5 202.0L255.0 195.1L262.5 187.5L270.0 179.4L277.5 171.2L285.0 162.9L292.5 154.8L300.0 147.1L307.5 139.9L315.0 133.5L322.5 127.9L330.0 123.4L337.5 120.1L345.0 118.0L352.5 117.1L360.0 117.6L367.5 119.4L375.0 122.4L382.5 126.5L390.0 131.8L397.5 138.0L405.0 144.9L412.5 152.5L420.0 160.6L427.5 168.8L435.0 177.1L442.5 185.2L450.0 192.9L457.5 200.1L465.0 206.5L472.5 212.1L480.0 216.6L487.5 219.9L495.0 222.0L502.5 222.9L510.0 222.4L517.5 220.6L525.0 217.6L532.5 213.5L540.0 208.2L547.5 202.0L555.0 195.1L562.5 187.5L570.0 179.4L577.5 171.2L585.0 162.9L592.5 154.8L600.0 147.1L607.5 139.9L615.0 133.5L622.5 127.9L630.0 123.4L637.5 120.1L645.0 118.0L652.5 117.1L660.0 117.6L667.5 119.4L675.0 122.4L682.5 126.5L690.0 131.8L697.5 138.0L705.0 144.9L712.5 152.5L720.0 160.6L727.5 168.8L735.0 177.1L742.5 185.2L750.0 192.9L757.5 200.1L765.0 206.5L772.5 212.1L780.0 216.6L787.5 219.9L795.0 222.0L802.5 222.9L810.0 222.4L817.5 220.6L825.0 217.6L832.5 213.5L840.0 208.2L847.5 202.0L855.0 195.1L862.5 187.5L870.0 179.4L877.5 171.2L885.0 162.9L892.5 154.8L900.0 147.1"/>
    <path d="M0.0 141.6L7.5 137.2L15.0 134.0L22.5 131.8L30.0 130.9L37.5 131.1L45.0 132.6L52.5 135.2L60.0 139.0L67.5 143.7L75.0 149.3L82.5 155.7L90.0 162.7L97.5 170.1L105.0 177.8L112.5 185.5L120.0 193.1L127.5 200.3L135.0 207.1L142.5 213.2L150.0 218.4L157.5 222.8L165.0 226.0L172.5 228.2L180.0 229.1L187.5 228.9L195.0 227.4L202.5 224.8L210.0 221.0L217.5 216.3L225.0 210.7L232.5 204.3L240.0 197.3L247.5 189.9L255.0 182.2L262.5 174.5L270.0 166.9L277.5 159.7L285.0 152.9L292.5 146.8L300.0 141.6L307.5 137.2L315.0 134.0L322.5 131.8L330.0 130.9L337.5 131.1L345.0 132.6L352.5 135.2L360.0 139.0L367.5 143.7L375.0 149.3L382.5 155.7L390.0 162.7L397.5 170.1L405.0 177.8L412.5 185.5L420.0 193.1L427.5 200.3L435.0 207.1L442.5 213.2L450.0 218.4L457.5 222.8L465.0 226.0L472.5 228.2L480.0 229.1L487.5 228.9L495.0 227.4L502.5 224.8L510.0 221.0L517.5 216.3L525.0 210.7L532.5 204.3L540.0 197.3L547.5 189.9L555.0 182.2L562.5 174.5L570.0 166.9L577.5 159.7L585.0 152.9L592.5 146.8L600.0 141.6L607.5 137.2L615.0 134.0L622.5 131.8L630.0 130.9L637.5 131.1L645.0 132.6L652.5 135.2L660.0 139.0L667.5 143.7L675.0 149.3L682.5 155.7L690.0 162.7L697.5 170.1L705.0 177.8L712.5 185.5L720.0 193.1L727.5 200.3L735.0 207.1L742.5 213.2L750.0 218.4L757.5 222.8L765.0 226.0L772.5 228.2L780.0 229.1L787.5 228.9L795.0 227.4L802.5 224.8L810.0 221.0L817.5 216.3L825.0 210.7L832.5 204.3L840.0 197.3L847.5 189.9L855.0 182.2L862.5 174.5L870.0 166.9L877.5 159.7L885.0 152.9L892.5 146.8L900.0 141.6"/>
    <path d="M0.0 152.7L7.5 151.8L15.0 151.8L22.5 152.9L30.0 154.8L37.5 157.6L45.0 161.2L52.5 165.4L60.0 170.4L67.5 175.7L75.0 181.5L82.5 187.4L90.0 193.4L97.5 199.4L105.0 205.1L112.5 210.4L120.0 215.2L127.5 219.4L135.0 222.9L142.5 225.6L150.0 227.3L157.5 228.2L165.0 228.2L172.5 227.1L180.0 225.2L187.5 222.4L195.0 218.8L202.5 214.6L210.0 209.6L217.5 204.3L225.0 198.5L232.5 192.6L240.0 186.6L247.5 180.6L255.0 174.9L262.5 169.6L270.0 164.8L277.5 160.6L285.0 157.1L292.5 154.4L300.0 152.7L307.5 151.8L315.0 151.8L322.5 152.9L330.0 154.8L337.5 157.6L345.0 161.2L352.5 165.4L360.0 170.4L367.5 175.7L375.0 181.5L382.5 187.4L390.0 193.4L397.5 199.4L405.0 205.1L412.5 210.4L420.0 215.2L427.5 219.4L435.0 222.9L442.5 225.6L450.0 227.3L457.5 228.2L465.0 228.2L472.5 227.1L480.0 225.2L487.5 222.4L495.0 218.8L502.5 214.6L510.0 209.6L517.5 204.3L525.0 198.5L532.5 192.6L540.0 186.6L547.5 180.6L555.0 174.9L562.5 169.6L570.0 164.8L577.5 160.6L585.0 157.1L592.5 154.4L600.0 152.7L607.5 151.8L615.0 151.8L622.5 152.9L630.0 154.8L637.5 157.6L645.0 161.2L652.5 165.4L660.0 170.4L667.5 175.7L675.0 181.5L682.5 187.4L690.0 193.4L697.5 199.4L705.0 205.1L712.5 210.4L720.0 215.2L727.5 219.4L735.0 222.9L742.5 225.6L750.0 227.3L757.5 228.2L765.0 228.2L772.5 227.1L780.0 225.2L787.5 222.4L795.0 218.8L802.5 214.6L810.0 209.6L817.5 204.3L825.0 198.5L832.5 192.6L840.0 186.6L847.5 180.6L855.0 174.9L862.5 169.6L870.0 164.8L877.5 160.6L885.0 157.1L892.5 154.4L900.0 152.7"/>
    <path d="M0.0 156.3L7.5 158.4L15.0 161.5L22.5 165.6L30.0 170.5L37.5 176.2L45.0 182.4L52.5 189.1L60.0 196.0L67.5 203.0L75.0 210.0L82.5 216.7L90.0 223.0L97.5 228.7L105.0 233.7L112.5 237.9L120.0 241.2L127.5 243.4L135.0 244.6L142.5 244.7L150.0 243.7L157.5 241.6L165.0 238.5L172.5 234.4L180.0 229.5L187.5 223.8L195.0 217.6L202.5 210.9L210.0 204.0L217.5 197.0L225.0 190.0L232.5 183.3L240.0 177.0L247.5 171.3L255.0 166.3L262.5 162.1L270.0 158.8L277.5 156.6L285.0 155.4L292.5 155.3L300.0 156.3L307.5 158.4L315.0 161.5L322.5 165.6L330.0 170.5L337.5 176.2L345.0 182.4L352.5 189.1L360.0 196.0L367.5 203.0L375.0 210.0L382.5 216.7L390.0 223.0L397.5 228.7L405.0 233.7L412.5 237.9L420.0 241.2L427.5 243.4L435.0 244.6L442.5 244.7L450.0 243.7L457.5 241.6L465.0 238.5L472.5 234.4L480.0 229.5L487.5 223.8L495.0 217.6L502.5 210.9L510.0 204.0L517.5 197.0L525.0 190.0L532.5 183.3L540.0 177.0L547.5 171.3L555.0 166.3L562.5 162.1L570.0 158.8L577.5 156.6L585.0 155.4L592.5 155.3L600.0 156.3L607.5 158.4L615.0 161.5L622.5 165.6L630.0 170.5L637.5 176.2L645.0 182.4L652.5 189.1L660.0 196.0L667.5 203.0L675.0 210.0L682.5 216.7L690.0 223.0L697.5 228.7L705.0 233.7L712.5 237.9L720.0 241.2L727.5 243.4L735.0 244.6L742.5 244.7L750.0 243.7L757.5 241.6L765.0 238.5L772.5 234.4L780.0 229.5L787.5 223.8L795.0 217.6L802.5 210.9L810.0 204.0L817.5 197.0L825.0 190.0L832.5 183.3L840.0 177.0L847.5 171.3L855.0 166.3L862.5 162.1L870.0 158.8L877.5 156.6L885.0 155.4L892.5 155.3L900.0 156.3"/>
    <path d="M0.0 167.8L7.5 173.6L15.0 180.3L22.5 187.7L30.0 195.6L37.5 204.0L45.0 212.4L52.5 220.8L60.0 229.0L67.5 236.6L75.0 243.7L82.5 249.9L90.0 255.1L97.5 259.2L105.0 262.1L112.5 263.7L120.0 263.9L127.5 262.9L135.0 260.6L142.5 257.0L150.0 252.2L157.5 246.4L165.0 239.7L172.5 232.3L180.0 224.4L187.5 216.0L195.0 207.6L202.5 199.2L210.0 191.0L217.5 183.4L225.0 176.3L232.5 170.1L240.0 164.9L247.5 160.8L255.0 157.9L262.5 156.3L270.0 156.1L277.5 157.1L285.0 159.4L292.5 163.0L300.0 167.8L307.5 173.6L315.0 180.3L322.5 187.7L330.0 195.6L337.5 204.0L345.0 212.4L352.5 220.8L360.0 229.0L367.5 236.6L375.0 243.7L382.5 249.9L390.0 255.1L397.5 259.2L405.0 262.1L412.5 263.7L420.0 263.9L427.5 262.9L435.0 260.6L442.5 257.0L450.0 252.2L457.5 246.4L465.0 239.7L472.5 232.3L480.0 224.4L487.5 216.0L495.0 207.6L502.5 199.2L510.0 191.0L517.5 183.4L525.0 176.3L532.5 170.1L540.0 164.9L547.5 160.8L555.0 157.9L562.5 156.3L570.0 156.1L577.5 157.1L585.0 159.4L592.5 163.0L600.0 167.8L607.5 173.6L615.0 180.3L622.5 187.7L630.0 195.6L637.5 204.0L645.0 212.4L652.5 220.8L660.0 229.0L667.5 236.6L675.0 243.7L682.5 249.9L690.0 255.1L697.5 259.2L705.0 262.1L712.5 263.7L720.0 263.9L727.5 262.9L735.0 260.6L742.5 257.0L750.0 252.2L757.5 246.4L765.0 239.7L772.5 232.3L780.0 224.4L787.5 216.0L795.0 207.6L802.5 199.2L810.0 191.0L817.5 183.4L825.0 176.3L832.5 170.1L840.0 164.9L847.5 160.8L855.0 157.9L862.5 156.3L870.0 156.1L877.5 157.1L885.0 159.4L892.5 163.0L900.0 167.8"/>
    <path d="M0.0 200.4L7.5 207.0L15.0 213.9L22.5 221.0L30.0 228.1L37.5 234.9L45.0 241.4L52.5 247.3L60.0 252.6L67.5 257.1L75.0 260.7L82.5 263.2L90.0 264.7L97.5 265.1L105.0 264.4L112.5 262.6L120.0 259.7L127.5 255.9L135.0 251.2L142.5 245.7L150.0 239.6L157.5 233.0L165.0 226.1L172.5 219.0L180.0 211.9L187.5 205.1L195.0 198.6L202.5 192.7L210.0 187.4L217.5 182.9L225.0 179.3L232.5 176.8L240.0 175.3L247.5 174.9L255.0 175.6L262.5 177.4L270.0 180.3L277.5 184.1L285.0 188.8L292.5 194.3L300.0 200.4L307.5 207.0L315.0 213.9L322.5 221.0L330.0 228.1L337.5 234.9L345.0 241.4L352.5 247.3L360.0 252.6L367.5 257.1L375.0 260.7L382.5 263.2L390.0 264.7L397.5 265.1L405.0 264.4L412.5 262.6L420.0 259.7L427.5 255.9L435.0 251.2L442.5 245.7L450.0 239.6L457.5 233.0L465.0 226.1L472.5 219.0L480.0 211.9L487.5 205.1L495.0 198.6L502.5 192.7L510.0 187.4L517.5 182.9L525.0 179.3L532.5 176.8L540.0 175.3L547.5 174.9L555.0 175.6L562.5 177.4L570.0 180.3L577.5 184.1L585.0 188.8L592.5 194.3L600.0 200.4L607.5 207.0L615.0 213.9L622.5 221.0L630.0 228.1L637.5 234.9L645.0 241.4L652.5 247.3L660.0 252.6L667.5 257.1L675.0 260.7L682.5 263.2L690.0 264.7L697.5 265.1L705.0 264.4L712.5 262.6L720.0 259.7L727.5 255.9L735.0 251.2L742.5 245.7L750.0 239.6L757.5 233.0L765.0 226.1L772.5 219.0L780.0 211.9L787.5 205.1L795.0 198.6L802.5 192.7L810.0 187.4L817.5 182.9L825.0 179.3L832.5 176.8L840.0 175.3L847.5 174.9L855.0 175.6L862.5 177.4L870.0 180.3L877.5 184.1L885.0 188.8L892.5 194.3L900.0 200.4"/>
    <path d="M0.0 90.0L7.5 82.8L15.0 75.8L22.5 69.1L30.0 63.0L37.5 57.5L45.0 52.8L52.5 49.0L60.0 46.3L67.5 44.6L75.0 44.0L82.5 44.6L90.0 46.3L97.5 49.0L105.0 52.8L112.5 57.5L120.0 63.0L127.5 69.1L135.0 75.8L142.5 82.8L150.0 90.0L157.5 97.2L165.0 104.2L172.5 110.9L180.0 117.0L187.5 122.5L195.0 127.2L202.5 131.0L210.0 133.7L217.5 135.4L225.0 136.0L232.5 135.4L240.0 133.7L247.5 131.0L255.0 127.2L262.5 122.5L270.0 117.0L277.5 110.9L285.0 104.2L292.5 97.2L300.0 90.0L307.5 82.8L315.0 75.8L322.5 69.1L330.0 63.0L337.5 57.5L345.0 52.8L352.5 49.0L360.0 46.3L367.5 44.6L375.0 44.0L382.5 44.6L390.0 46.3L397.5 49.0L405.0 52.8L412.5 57.5L420.0 63.0L427.5 69.1L435.0 75.8L442.5 82.8L450.0 90.0L457.5 97.2L465.0 104.2L472.5 110.9L480.0 117.0L487.5 122.5L495.0 127.2L502.5 131.0L510.0 133.7L517.5 135.4L525.0 136.0L532.5 135.4L540.0 133.7L547.5 131.0L555.0 127.2L562.5 122.5L570.0 117.0L577.5 110.9L585.0 104.2L592.5 97.2L600.0 90.0L607.5 82.8L615.0 75.8L622.5 69.1L630.0 63.0L637.5 57.5L645.0 52.8L652.5 49.0L660.0 46.3L667.5 44.6L675.0 44.0L682.5 44.6L690.0 46.3L697.5 49.0L705.0 52.8L712.5 57.5L720.0 63.0L727.5 69.1L735.0 75.8L742.5 82.8L750.0 90.0L757.5 97.2L765.0 104.2L772.5 110.9L780.0 117.0L787.5 122.5L795.0 127.2L802.5 131.0L810.0 133.7L817.5 135.4L825.0 136.0L832.5 135.4L840.0 133.7L847.5 131.0L855.0 127.2L862.5 122.5L870.0 117.0L877.5 110.9L885.0 104.2L892.5 97.2L900.0 90.0"/>
    <path d="M0.0 76.6L7.5 69.3L15.0 62.7L22.5 57.1L30.0 52.5L37.5 49.1L45.0 46.9L52.5 46.1L60.0 46.6L67.5 48.3L75.0 51.4L82.5 55.7L90.0 61.0L97.5 67.3L105.0 74.4L112.5 82.2L120.0 90.4L127.5 98.8L135.0 107.2L142.5 115.5L150.0 123.4L157.5 130.7L165.0 137.3L172.5 142.9L180.0 147.5L187.5 150.9L195.0 153.1L202.5 153.9L210.0 153.4L217.5 151.7L225.0 148.6L232.5 144.3L240.0 139.0L247.5 132.7L255.0 125.6L262.5 117.8L270.0 109.6L277.5 101.2L285.0 92.8L292.5 84.5L300.0 76.6L307.5 69.3L315.0 62.7L322.5 57.1L330.0 52.5L337.5 49.1L345.0 46.9L352.5 46.1L360.0 46.6L367.5 48.3L375.0 51.4L382.5 55.7L390.0 61.0L397.5 67.3L405.0 74.4L412.5 82.2L420.0 90.4L427.5 98.8L435.0 107.2L442.5 115.5L450.0 123.4L457.5 130.7L465.0 137.3L472.5 142.9L480.0 147.5L487.5 150.9L495.0 153.1L502.5 153.9L510.0 153.4L517.5 151.7L525.0 148.6L532.5 144.3L540.0 139.0L547.5 132.7L555.0 125.6L562.5 117.8L570.0 109.6L577.5 101.2L585.0 92.8L592.5 84.5L600.0 76.6L607.5 69.3L615.0 62.7L622.5 57.1L630.0 52.5L637.5 49.1L645.0 46.9L652.5 46.1L660.0 46.6L667.5 48.3L675.0 51.4L682.5 55.7L690.0 61.0L697.5 67.3L705.0 74.4L712.5 82.2L720.0 90.4L727.5 98.8L735.0 107.2L742.5 115.5L750.0 123.4L757.5 130.7L765.0 137.3L772.5 142.9L780.0 147.5L787.5 150.9L795.0 153.1L802.5 153.9L810.0 153.4L817.5 151.7L825.0 148.6L832.5 144.3L840.0 139.0L847.5 132.7L855.0 125.6L862.5 117.8L870.0 109.6L877.5 101.2L885.0 92.8L892.5 84.5L900.0 76.6"/>
    <path d="M0.0 75.6L7.5 71.8L15.0 68.8L22.5 66.9L30.0 66.1L37.5 66.3L45.0 67.6L52.5 70.0L60.0 73.3L67.5 77.6L75.0 82.6L82.5 88.3L90.0 94.6L97.5 101.2L105.0 108.0L112.5 114.9L120.0 121.7L127.5 128.2L135.0 134.2L142.5 139.7L150.0 144.4L157.5 148.2L165.0 151.2L172.5 153.1L180.0 153.9L187.5 153.7L195.0 152.4L202.5 150.0L210.0 146.7L217.5 142.4L225.0 137.4L232.5 131.7L240.0 125.4L247.5 118.8L255.0 112.0L262.5 105.1L270.0 98.3L277.5 91.8L285.0 85.8L292.5 80.3L300.0 75.6L307.5 71.8L315.0 68.8L322.5 66.9L330.0 66.1L337.5 66.3L345.0 67.6L352.5 70.0L360.0 73.3L367.5 77.6L375.0 82.6L382.5 88.3L390.0 94.6L397.5 101.2L405.0 108.0L412.5 114.9L420.0 121.7L427.5 128.2L435.0 134.2L442.5 139.7L450.0 144.4L457.5 148.2L465.0 151.2L472.5 153.1L480.0 153.9L487.5 153.7L495.0 152.4L502.5 150.0L510.0 146.7L517.5 142.4L525.0 137.4L532.5 131.7L540.0 125.4L547.5 118.8L555.0 112.0L562.5 105.1L570.0 98.3L577.5 91.8L585.0 85.8L592.5 80.3L600.0 75.6L607.5 71.8L615.0 68.8L622.5 66.9L630.0 66.1L637.5 66.3L645.0 67.6L652.5 70.0L660.0 73.3L667.5 77.6L675.0 82.6L682.5 88.3L690.0 94.6L697.5 101.2L705.0 108.0L712.5 114.9L720.0 121.7L727.5 128.2L735.0 134.2L742.5 139.7L750.0 144.4L757.5 148.2L765.0 151.2L772.5 153.1L780.0 153.9L787.5 153.7L795.0 152.4L802.5 150.0L810.0 146.7L817.5 142.4L825.0 137.4L832.5 131.7L840.0 125.4L847.5 118.8L855.0 112.0L862.5 105.1L870.0 98.3L877.5 91.8L885.0 85.8L892.5 80.3L900.0 75.6"/>
    <path d="M0.0 82.4L7.5 81.5L15.0 81.6L22.5 82.6L30.0 84.5L37.5 87.3L45.0 90.9L52.5 95.3L60.0 100.2L67.5 105.6L75.0 111.4L82.5 117.4L90.0 123.5L97.5 129.4L105.0 135.2L112.5 140.5L120.0 145.4L127.5 149.6L135.0 153.1L142.5 155.8L150.0 157.6L157.5 158.5L165.0 158.4L172.5 157.4L180.0 155.5L187.5 152.7L195.0 149.1L202.5 144.7L210.0 139.8L217.5 134.4L225.0 128.6L232.5 122.6L240.0 116.5L247.5 110.6L255.0 104.8L262.5 99.5L270.0 94.6L277.5 90.4L285.0 86.9L292.5 84.2L300.0 82.4L307.5 81.5L315.0 81.6L322.5 82.6L330.0 84.5L337.5 87.3L345.0 90.9L352.5 95.3L360.0 100.2L367.5 105.6L375.0 111.4L382.5 117.4L390.0 123.5L397.5 129.4L405.0 135.2L412.5 140.5L420.0 145.4L427.5 149.6L435.0 153.1L442.5 155.8L450.0 157.6L457.5 158.5L465.0 158.4L472.5 157.4L480.0 155.5L487.5 152.7L495.0 149.1L502.5 144.7L510.0 139.8L517.5 134.4L525.0 128.6L532.5 122.6L540.0 116.5L547.5 110.6L555.0 104.8L562.5 99.5L570.0 94.6L577.5 90.4L585.0 86.9L592.5 84.2L600.0 82.4L607.5 81.5L615.0 81.6L622.5 82.6L630.0 84.5L637.5 87.3L645.0 90.9L652.5 95.3L660.0 100.2L667.5 105.6L675.0 111.4L682.5 117.4L690.0 123.5L697.5 129.4L705.0 135.2L712.5 140.5L720.0 145.4L727.5 149.6L735.0 153.1L742.5 155.8L750.0 157.6L757.5 158.5L765.0 158.4L772.5 157.4L780.0 155.5L787.5 152.7L795.0 149.1L802.5 144.7L810.0 139.8L817.5 134.4L825.0 128.6L832.5 122.6L840.0 116.5L847.5 110.6L855.0 104.8L862.5 99.5L870.0 94.6L877.5 90.4L885.0 86.9L892.5 84.2L900.0 82.4"/>
    <path d="M0.0 81.3L7.5 83.6L15.0 87.1L22.5 91.7L30.0 97.1L37.5 103.4L45.0 110.4L52.5 117.8L60.0 125.5L67.5 133.4L75.0 141.1L82.5 148.6L90.0 155.6L97.5 162.0L105.0 167.6L112.5 172.3L120.0 175.9L127.5 178.4L135.0 179.8L142.5 179.8L150.0 178.7L157.5 176.4L165.0 172.9L172.5 168.3L180.0 162.9L187.5 156.6L195.0 149.6L202.5 142.2L210.0 134.5L217.5 126.6L225.0 118.9L232.5 111.4L240.0 104.4L247.5 98.0L255.0 92.4L262.5 87.7L270.0 84.1L277.5 81.6L285.0 80.2L292.5 80.2L300.0 81.3L307.5 83.6L315.0 87.1L322.5 91.7L330.0 97.1L337.5 103.4L345.0 110.4L352.5 117.8L360.0 125.5L367.5 133.4L375.0 141.1L382.5 148.6L390.0 155.6L397.5 162.0L405.0 167.6L412.5 172.3L420.0 175.9L427.5 178.4L435.0 179.8L442.5 179.8L450.0 178.7L457.5 176.4L465.0 172.9L472.5 168.3L480.0 162.9L487.5 156.6L495.0 149.6L502.5 142.2L510.0 134.5L517.5 126.6L525.0 118.9L532.5 111.4L540.0 104.4L547.5 98.0L555.0 92.4L562.5 87.7L570.0 84.1L577.5 81.6L585.0 80.2L592.5 80.2L600.0 81.3L607.5 83.6L615.0 87.1L622.5 91.7L630.0 97.1L637.5 103.4L645.0 110.4L652.5 117.8L660.0 125.5L667.5 133.4L675.0 141.1L682.5 148.6L690.0 155.6L697.5 162.0L705.0 167.6L712.5 172.3L720.0 175.9L727.5 178.4L735.0 179.8L742.5 179.8L750.0 178.7L757.5 176.4L765.0 172.9L772.5 168.3L780.0 162.9L787.5 156.6L795.0 149.6L802.5 142.2L810.0 134.5L817.5 126.6L825.0 118.9L832.5 111.4L840.0 104.4L847.5 98.0L855.0 92.4L862.5 87.7L870.0 84.1L877.5 81.6L885.0 80.2L892.5 80.2L900.0 81.3"/>
    <path d="M0.0 99.0L7.5 104.7L15.0 111.1L22.5 118.3L30.0 126.1L37.5 134.1L45.0 142.4L52.5 150.5L60.0 158.4L67.5 165.9L75.0 172.7L82.5 178.7L90.0 183.7L97.5 187.7L105.0 190.5L112.5 192.1L120.0 192.3L127.5 191.3L135.0 189.0L142.5 185.6L150.0 181.0L157.5 175.3L165.0 168.9L172.5 161.7L180.0 153.9L187.5 145.9L195.0 137.6L202.5 129.5L210.0 121.6L217.5 114.1L225.0 107.3L232.5 101.3L240.0 96.3L247.5 92.3L255.0 89.5L262.5 87.9L270.0 87.7L277.5 88.7L285.0 91.0L292.5 94.4L300.0 99.0L307.5 104.7L315.0 111.1L322.5 118.3L330.0 126.1L337.5 134.1L345.0 142.4L352.5 150.5L360.0 158.4L367.5 165.9L375.0 172.7L382.5 178.7L390.0 183.7L397.5 187.7L405.0 190.5L412.5 192.1L420.0 192.3L427.5 191.3L435.0 189.0L442.5 185.6L450.0 181.0L457.5 175.3L465.0 168.9L472.5 161.7L480.0 153.9L487.5 145.9L495.0 137.6L502.5 129.5L510.0 121.6L517.5 114.1L525.0 107.3L532.5 101.3L540.0 96.3L547.5 92.3L555.0 89.5L562.5 87.9L570.0 87.7L577.5 88.7L585.0 91.0L592.5 94.4L600.0 99.0L607.5 104.7L615.0 111.1L622.5 118.3L630.0 126.1L637.5 134.1L645.0 142.4L652.5 150.5L660.0 158.4L667.5 165.9L675.0 172.7L682.5 178.7L690.0 183.7L697.5 187.7L705.0 190.5L712.5 192.1L720.0 192.3L727.5 191.3L735.0 189.0L742.5 185.6L750.0 181.0L757.5 175.3L765.0 168.9L772.5 161.7L780.0 153.9L787.5 145.9L795.0 137.6L802.5 129.5L810.0 121.6L817.5 114.1L825.0 107.3L832.5 101.3L840.0 96.3L847.5 92.3L855.0 89.5L862.5 87.9L870.0 87.7L877.5 88.7L885.0 91.0L892.5 94.4L900.0 99.0"/>
    <path d="M0.0 132.5L7.5 138.4L15.0 144.6L22.5 150.9L30.0 157.2L37.5 163.3L45.0 169.1L52.5 174.5L60.0 179.2L67.5 183.2L75.0 186.4L82.5 188.7L90.0 190.0L97.5 190.4L105.0 189.8L112.5 188.1L120.0 185.6L127.5 182.1L135.0 177.9L142.5 173.0L150.0 167.5L157.5 161.6L165.0 155.4L172.5 149.1L180.0 142.8L187.5 136.7L195.0 130.9L202.5 125.5L210.0 120.8L217.5 116.8L225.0 113.6L232.5 111.3L240.0 110.0L247.5 109.6L255.0 110.2L262.5 111.9L270.0 114.4L277.5 117.9L285.0 122.1L292.5 127.0L300.0 132.5L307.5 138.4L315.0 144.6L322.5 150.9L330.0 157.2L337.5 163.3L345.0 169.1L352.5 174.5L360.0 179.2L367.5 183.2L375.0 186.4L382.5 188.7L390.0 190.0L397.5 190.4L405.0 189.8L412.5 188.1L420.0 185.6L427.5 182.1L435.0 177.9L442.5 173.0L450.0 167.5L457.5 161.6L465.0 155.4L472.5 149.1L480.0 142.8L487.5 136.7L495.0 130.9L502.5 125.5L510.0 120.8L517.5 116.8L525.0 113.6L532.5 111.3L540.0 110.0L547.5 109.6L555.0 110.2L562.5 111.9L570.0 114.4L577.5 117.9L585.0 122.1L592.5 127.0L600.0 132.5L607.5 138.4L615.0 144.6L622.5 150.9L630.0 157.2L637.5 163.3L645.0 169.1L652.5 174.5L660.0 179.2L667.5 183.2L675.0 186.4L682.5 188.7L690.0 190.0L697.5 190.4L705.0 189.8L712.5 188.1L720.0 185.6L727.5 182.1L735.0 177.9L742.5 173.0L750.0 167.5L757.5 161.6L765.0 155.4L772.5 149.1L780.0 142.8L787.5 136.7L795.0 130.9L802.5 125.5L810.0 120.8L817.5 116.8L825.0 113.6L832.5 111.3L840.0 110.0L847.5 109.6L855.0 110.2L862.5 111.9L870.0 114.4L877.5 117.9L885.0 122.1L892.5 127.0L900.0 132.5"/>
    <path d="M0.0 160.0L7.5 166.4L15.0 172.7L22.5 178.6L30.0 184.1L37.5 189.0L45.0 193.2L52.5 196.6L60.0 199.0L67.5 200.5L75.0 201.1L82.5 200.5L90.0 199.0L97.5 196.6L105.0 193.2L112.5 189.0L120.0 184.1L127.5 178.6L135.0 172.7L142.5 166.4L150.0 160.0L157.5 153.6L165.0 147.3L172.5 141.4L180.0 135.9L187.5 131.0L195.0 126.8L202.5 123.4L210.0 121.0L217.5 119.5L225.0 118.9L232.5 119.5L240.0 121.0L247.5 123.4L255.0 126.8L262.5 131.0L270.0 135.9L277.5 141.4L285.0 147.3L292.5 153.6L300.0 160.0L307.5 166.4L315.0 172.7L322.5 178.6L330.0 184.1L337.5 189.0L345.0 193.2L352.5 196.6L360.0 199.0L367.5 200.5L375.0 201.1L382.5 200.5L390.0 199.0L397.5 196.6L405.0 193.2L412.5 189.0L420.0 184.1L427.5 178.6L435.0 172.7L442.5 166.4L450.0 160.0L457.5 153.6L465.0 147.3L472.5 141.4L480.0 135.9L487.5 131.0L495.0 126.8L502.5 123.4L510.0 121.0L517.5 119.5L525.0 118.9L532.5 119.5L540.0 121.0L547.5 123.4L555.0 126.8L562.5 131.0L570.0 135.9L577.5 141.4L585.0 147.3L592.5 153.6L600.0 160.0L607.5 166.4L615.0 172.7L622.5 178.6L630.0 184.1L637.5 189.0L645.0 193.2L652.5 196.6L660.0 199.0L667.5 200.5L675.0 201.1L682.5 200.5L690.0 199.0L697.5 196.6L705.0 193.2L712.5 189.0L720.0 184.1L727.5 178.6L735.0 172.7L742.5 166.4L750.0 160.0L757.5 153.6L765.0 147.3L772.5 141.4L780.0 135.9L787.5 131.0L795.0 126.8L802.5 123.4L810.0 121.0L817.5 119.5L825.0 118.9L832.5 119.5L840.0 121.0L847.5 123.4L855.0 126.8L862.5 131.0L870.0 135.9L877.5 141.4L885.0 147.3L892.5 153.6L900.0 160.0"/>
    <path d="M0.0 192.9L7.5 200.1L15.0 206.5L22.5 212.1L30.0 216.6L37.5 219.9L45.0 222.0L52.5 222.9L60.0 222.4L67.5 220.6L75.0 217.6L82.5 213.5L90.0 208.2L97.5 202.0L105.0 195.1L112.5 187.5L120.0 179.4L127.5 171.2L135.0 162.9L142.5 154.8L150.0 147.1L157.5 139.9L165.0 133.5L172.5 127.9L180.0 123.4L187.5 120.1L195.0 118.0L202.5 117.1L210.0 117.6L217.5 119.4L225.0 122.4L232.5 126.5L240.0 131.8L247.5 138.0L255.0 144.9L262.5 152.5L270.0 160.6L277.5 168.8L285.0 177.1L292.5 185.2L300.0 192.9L307.5 200.1L315.0 206.5L322.5 212.1L330.0 216.6L337.5 219.9L345.0 222.0L352.5 222.9L360.0 222.4L367.5 220.6L375.0 217.6L382.5 213.5L390.0 208.2L397.5 202.0L405.0 195.1L412.5 187.5L420.0 179.4L427.5 171.2L435.0 162.9L442.5 154.8L450.0 147.1L457.5 139.9L465.0 133.5L472.5 127.9L480.0 123.4L487.5 120.1L495.0 118.0L502.5 117.1L510.0 117.6L517.5 119.4L525.0 122.4L532.5 126.5L540.0 131.8L547.5 138.0L555.0 144.9L562.5 152.5L570.0 160.6L577.5 168.8L585.0 177.1L592.5 185.2L600.0 192.9L607.5 200.1L615.0 206.5L622.5 212.1L630.0 216.6L637.5 219.9L645.0 222.0L652.5 222.9L660.0 222.4L667.5 220.6L675.0 217.6L682.5 213.5L690.0 208.2L697.5 202.0L705.0 195.1L712.5 187.5L720.0 179.4L727.5 171.2L735.0 162.9L742.5 154.8L750.0 147.1L757.5 139.9L765.0 133.5L772.5 127.9L780.0 123.4L787.5 120.1L795.0 118.0L802.5 117.1L810.0 117.6L817.5 119.4L825.0 122.4L832.5 126.5L840.0 131.8L847.5 138.0L855.0 144.9L862.5 152.5L870.0 160.6L877.5 168.8L885.0 177.1L892.5 185.2L900.0 192.9"/>
    <path d="M0.0 218.4L7.5 222.8L15.0 226.0L22.5 228.2L30.0 229.1L37.5 228.9L45.0 227.4L52.5 224.8L60.0 221.0L67.5 216.3L75.0 210.7L82.5 204.3L90.0 197.3L97.5 189.9L105.0 182.2L112.5 174.5L120.0 166.9L127.5 159.7L135.0 152.9L142.5 146.8L150.0 141.6L157.5 137.2L165.0 134.0L172.5 131.8L180.0 130.9L187.5 131.1L195.0 132.6L202.5 135.2L210.0 139.0L217.5 143.7L225.0 149.3L232.5 155.7L240.0 162.7L247.5 170.1L255.0 177.8L262.5 185.5L270.0 193.1L277.5 200.3L285.0 207.1L292.5 213.2L300.0 218.4L307.5 222.8L315.0 226.0L322.5 228.2L330.0 229.1L337.5 228.9L345.0 227.4L352.5 224.8L360.0 221.0L367.5 216.3L375.0 210.7L382.5 204.3L390.0 197.3L397.5 189.9L405.0 182.2L412.5 174.5L420.0 166.9L427.5 159.7L435.0 152.9L442.5 146.8L450.0 141.6L457.5 137.2L465.0 134.0L472.5 131.8L480.0 130.9L487.5 131.1L495.0 132.6L502.5 135.2L510.0 139.0L517.5 143.7L525.0 149.3L532.5 155.7L540.0 162.7L547.5 170.1L555.0 177.8L562.5 185.5L570.0 193.1L577.5 200.3L585.0 207.1L592.5 213.2L600.0 218.4L607.5 222.8L615.0 226.0L622.5 228.2L630.0 229.1L637.5 228.9L645.0 227.4L652.5 224.8L660.0 221.0L667.5 216.3L675.0 210.7L682.5 204.3L690.0 197.3L697.5 189.9L705.0 182.2L712.5 174.5L720.0 166.9L727.5 159.7L735.0 152.9L742.5 146.8L750.0 141.6L757.5 137.2L765.0 134.0L772.5 131.8L780.0 130.9L787.5 131.1L795.0 132.6L802.5 135.2L810.0 139.0L817.5 143.7L825.0 149.3L832.5 155.7L840.0 162.7L847.5 170.1L855.0 177.8L862.5 185.5L870.0 193.1L877.5 200.3L885.0 207.1L892.5 213.2L900.0 218.4"/>
    <path d="M0.0 227.3L7.5 228.2L15.0 228.2L22.5 227.1L30.0 225.2L37.5 222.4L45.0 218.8L52.5 214.6L60.0 209.6L67.5 204.3L75.0 198.5L82.5 192.6L90.0 186.6L97.5 180.6L105.0 174.9L112.5 169.6L120.0 164.8L127.5 160.6L135.0 157.1L142.5 154.4L150.0 152.7L157.5 151.8L165.0 151.8L172.5 152.9L180.0 154.8L187.5 157.6L195.0 161.2L202.5 165.4L210.0 170.4L217.5 175.7L225.0 181.5L232.5 187.4L240.0 193.4L247.5 199.4L255.0 205.1L262.5 210.4L270.0 215.2L277.5 219.4L285.0 222.9L292.5 225.6L300.0 227.3L307.5 228.2L315.0 228.2L322.5 227.1L330.0 225.2L337.5 222.4L345.0 218.8L352.5 214.6L360.0 209.6L367.5 204.3L375.0 198.5L382.5 192.6L390.0 186.6L397.5 180.6L405.0 174.9L412.5 169.6L420.0 164.8L427.5 160.6L435.0 157.1L442.5 154.4L450.0 152.7L457.5 151.8L465.0 151.8L472.5 152.9L480.0 154.8L487.5 157.6L495.0 161.2L502.5 165.4L510.0 170.4L517.5 175.7L525.0 181.5L532.5 187.4L540.0 193.4L547.5 199.4L555.0 205.1L562.5 210.4L570.0 215.2L577.5 219.4L585.0 222.9L592.5 225.6L600.0 227.3L607.5 228.2L615.0 228.2L622.5 227.1L630.0 225.2L637.5 222.4L645.0 218.8L652.5 214.6L660.0 209.6L667.5 204.3L675.0 198.5L682.5 192.6L690.0 186.6L697.5 180.6L705.0 174.9L712.5 169.6L720.0 164.8L727.5 160.6L735.0 157.1L742.5 154.4L750.0 152.7L757.5 151.8L765.0 151.8L772.5 152.9L780.0 154.8L787.5 157.6L795.0 161.2L802.5 165.4L810.0 170.4L817.5 175.7L825.0 181.5L832.5 187.4L840.0 193.4L847.5 199.4L855.0 205.1L862.5 210.4L870.0 215.2L877.5 219.4L885.0 222.9L892.5 225.6L900.0 227.3"/>
    <path d="M0.0 243.7L7.5 241.6L15.0 238.5L22.5 234.4L30.0 229.5L37.5 223.8L45.0 217.6L52.5 210.9L60.0 204.0L67.5 197.0L75.0 190.0L82.5 183.3L90.0 177.0L97.5 171.3L105.0 166.3L112.5 162.1L120.0 158.8L127.5 156.6L135.0 155.4L142.5 155.3L150.0 156.3L157.5 158.4L165.0 161.5L172.5 165.6L180.0 170.5L187.5 176.2L195.0 182.4L202.5 189.1L210.0 196.0L217.5 203.0L225.0 210.0L232.5 216.7L240.0 223.0L247.5 228.7L255.0 233.7L262.5 237.9L270.0 241.2L277.5 243.4L285.0 244.6L292.5 244.7L300.0 243.7L307.5 241.6L315.0 238.5L322.5 234.4L330.0 229.5L337.5 223.8L345.0 217.6L352.5 210.9L360.0 204.0L367.5 197.0L375.0 190.0L382.5 183.3L390.0 177.0L397.5 171.3L405.0 166.3L412.5 162.1L420.0 158.8L427.5 156.6L435.0 155.4L442.5 155.3L450.0 156.3L457.5 158.4L465.0 161.5L472.5 165.6L480.0 170.5L487.5 176.2L495.0 182.4L502.5 189.1L510.0 196.0L517.5 203.0L525.0 210.0L532.5 216.7L540.0 223.0L547.5 228.7L555.0 233.7L562.5 237.9L570.0 241.2L577.5 243.4L585.0 244.6L592.5 244.7L600.0 243.7L607.5 241.6L615.0 238.5L622.5 234.4L630.0 229.5L637.5 223.8L645.0 217.6L652.5 210.9L660.0 204.0L667.5 197.0L675.0 190.0L682.5 183.3L690.0 177.0L697.5 171.3L705.0 166.3L712.5 162.1L720.0 158.8L727.5 156.6L735.0 155.4L742.5 155.3L750.0 156.3L757.5 158.4L765.0 161.5L772.5 165.6L780.0 170.5L787.5 176.2L795.0 182.4L802.5 189.1L810.0 196.0L817.5 203.0L825.0 210.0L832.5 216.7L840.0 223.0L847.5 228.7L855.0 233.7L862.5 237.9L870.0 241.2L877.5 243.4L885.0 244.6L892.5 244.7L900.0 243.7"/>
    <path d="M0.0 252.2L7.5 246.4L15.0 239.7L22.5 232.3L30.0 224.4L37.5 216.0L45.0 207.6L52.5 199.2L60.0 191.0L67.5 183.4L75.0 176.3L82.5 170.1L90.0 164.9L97.5 160.8L105.0 157.9L112.5 156.3L120.0 156.1L127.5 157.1L135.0 159.4L142.5 163.0L150.0 167.8L157.5 173.6L165.0 180.3L172.5 187.7L180.0 195.6L187.5 204.0L195.0 212.4L202.5 220.8L210.0 229.0L217.5 236.6L225.0 243.7L232.5 249.9L240.0 255.1L247.5 259.2L255.0 262.1L262.5 263.7L270.0 263.9L277.5 262.9L285.0 260.6L292.5 257.0L300.0 252.2L307.5 246.4L315.0 239.7L322.5 232.3L330.0 224.4L337.5 216.0L345.0 207.6L352.5 199.2L360.0 191.0L367.5 183.4L375.0 176.3L382.5 170.1L390.0 164.9L397.5 160.8L405.0 157.9L412.5 156.3L420.0 156.1L427.5 157.1L435.0 159.4L442.5 163.0L450.0 167.8L457.5 173.6L465.0 180.3L472.5 187.7L480.0 195.6L487.5 204.0L495.0 212.4L502.5 220.8L510.0 229.0L517.5 236.6L525.0 243.7L532.5 249.9L540.0 255.1L547.5 259.2L555.0 262.1L562.5 263.7L570.0 263.9L577.5 262.9L585.0 260.6L592.5 257.0L600.0 252.2L607.5 246.4L615.0 239.7L622.5 232.3L630.0 224.4L637.5 216.0L645.0 207.6L652.5 199.2L660.0 191.0L667.5 183.4L675.0 176.3L682.5 170.1L690.0 164.9L697.5 160.8L705.0 157.9L712.5 156.3L720.0 156.1L727.5 157.1L735.0 159.4L742.5 163.0L750.0 167.8L757.5 173.6L765.0 180.3L772.5 187.7L780.0 195.6L787.5 204.0L795.0 212.4L802.5 220.8L810.0 229.0L817.5 236.6L825.0 243.7L832.5 249.9L840.0 255.1L847.5 259.2L855.0 262.1L862.5 263.7L870.0 263.9L877.5 262.9L885.0 260.6L892.5 257.0L900.0 252.2"/>
    <path d="M0.0 239.6L7.5 233.0L15.0 226.1L22.5 219.0L30.0 211.9L37.5 205.1L45.0 198.6L52.5 192.7L60.0 187.4L67.5 182.9L75.0 179.3L82.5 176.8L90.0 175.3L97.5 174.9L105.0 175.6L112.5 177.4L120.0 180.3L127.5 184.1L135.0 188.8L142.5 194.3L150.0 200.4L157.5 207.0L165.0 213.9L172.5 221.0L180.0 228.1L187.5 234.9L195.0 241.4L202.5 247.3L210.0 252.6L217.5 257.1L225.0 260.7L232.5 263.2L240.0 264.7L247.5 265.1L255.0 264.4L262.5 262.6L270.0 259.7L277.5 255.9L285.0 251.2L292.5 245.7L300.0 239.6L307.5 233.0L315.0 226.1L322.5 219.0L330.0 211.9L337.5 205.1L345.0 198.6L352.5 192.7L360.0 187.4L367.5 182.9L375.0 179.3L382.5 176.8L390.0 175.3L397.5 174.9L405.0 175.6L412.5 177.4L420.0 180.3L427.5 184.1L435.0 188.8L442.5 194.3L450.0 200.4L457.5 207.0L465.0 213.9L472.5 221.0L480.0 228.1L487.5 234.9L495.0 241.4L502.5 247.3L510.0 252.6L517.5 257.1L525.0 260.7L532.5 263.2L540.0 264.7L547.5 265.1L555.0 264.4L562.5 262.6L570.0 259.7L577.5 255.9L585.0 251.2L592.5 245.7L600.0 239.6L607.5 233.0L615.0 226.1L622.5 219.0L630.0 211.9L637.5 205.1L645.0 198.6L652.5 192.7L660.0 187.4L667.5 182.9L675.0 179.3L682.5 176.8L690.0 175.3L697.5 174.9L705.0 175.6L712.5 177.4L720.0 180.3L727.5 184.1L735.0 188.8L742.5 194.3L750.0 200.4L757.5 207.0L765.0 213.9L772.5 221.0L780.0 228.1L787.5 234.9L795.0 241.4L802.5 247.3L810.0 252.6L817.5 257.1L825.0 260.7L832.5 263.2L840.0 264.7L847.5 265.1L855.0 264.4L862.5 262.6L870.0 259.7L877.5 255.9L885.0 251.2L892.5 245.7L900.0 239.6"/>
</svg>